<mxfile host="app.diagrams.net" modified="2023-06-20T01:31:01.552Z" agent="Mozilla/5.0 (Macintosh; Intel Mac OS X 10_15_7) AppleWebKit/537.36 (KHTML, like Gecko) Chrome/114.0.0.0 Safari/537.36" version="21.3.8" etag="r8oXn2YAXBaEN3e4bvLi" type="github">
  <diagram name="Page-1" id="yw3XrVsl9OnAFP94GyPk">
    <mxGraphModel>
      <root>
        <mxCell id="0" />
        <mxCell id="1" parent="0" />
      </root>
    </mxGraphModel>
  </diagram>
</mxfile>
